<svg xmlns="http://www.w3.org/2000/svg" width="14" height="14" viewBox="0 0 24 24" fill="#8E8E93"><path d="M16.36 12.72c-.03-2.67 2.18-3.95 2.28-4.01-1.24-1.82-3.17-2.07-3.86-2.1-1.64-.17-3.2.96-4.03.96-.83 0-2.11-.94-3.47-.91-1.79.03-3.44 1.04-4.36 2.64-1.86 3.22-.48 8 1.33 10.62.88 1.28 1.94 2.72 3.32 2.67 1.33-.05 1.83-.86 3.44-.86 1.61 0 2.06.86 3.47.83 1.43-.02 2.34-1.31 3.22-2.6 1.01-1.49 1.43-2.93 1.45-3-.03-.02-2.79-1.07-2.82-4.24zM13.9 4.6c.73-.89 1.23-2.12 1.09-3.35-1.06.04-2.34.7-3.1 1.59-.68.78-1.27 2.03-1.11 3.23 1.18.09 2.39-.6 3.12-1.47z"/></svg>
